#!OML:ASF H:\ManfredETheater\Project 1\Capture day 1\Session 1\subject.ASF
:FULLY-SPECIFIED
:DEGREES
211
root 0.532288 17.9967 -23.8174 -177.231 20.9011 -181.141
lowerback 8.70299 0.0867678 0.443374
upperback -1.2752 0.38665 2.62934
thorax -6.24258 0.250374 2.44818
lowerneck -15.8362 3.96633 3.58985
upperneck 20.5879 6.99773 -7.72609
head 9.52839 2.92215 -2.32113
rclavicle 6.95746e-015 -2.94201e-014
rhumerus -43.4084 -15.3033 -64.669
rradius 59.8724
rwrist -6.71607
rhand -24.8416 -8.36427
rfingers 7.12502
rthumb 1.66459 -38.3375
lclavicle 6.95746e-015 -2.94201e-014
lhumerus -44.6333 10.4293 81.4211
lradius 41.6787
lwrist -13.4377
lhand -8.61149 -0.361004
lfingers 7.12502
lthumb 17.3204 28.8872
rfemur -11.6354 -2.55382 17.6611
rtibia 30.0844
rfoot -15.0784 -9.89824
rtoes -27.0444
lfemur -24.9601 -4.32183 -16.5856
ltibia 37.6216
lfoot -12.3778 0.718376
ltoes -1.15671
212
root 0.544107 17.9997 -23.8464 -177.077 20.7559 -181.102
lowerback 8.65383 0.0839445 0.427312
upperback -1.30684 0.379273 2.61722
thorax -6.24767 0.246867 2.44563
lowerneck -15.8497 3.92939 3.54723
upperneck 20.6771 6.95716 -7.67261
head 9.55573 2.90549 -2.30102
rclavicle 2.52457e-014 -7.95139e-016
rhumerus -43.1756 -15.0593 -65.1311
rradius 59.781
rwrist -6.50487
rhand -24.8638 -8.27251
rfingers 7.12502
rthumb 1.64314 -38.2459
lclavicle 2.52457e-014 -7.95139e-016
lhumerus -44.3193 10.118 81.564
lradius 41.9079
lwrist -13.3245
lhand -8.46692 -0.256176
lfingers 7.12502
lthumb 17.4595 28.9797
rfemur -11.5523 -2.51782 17.7181
rtibia 29.9037
rfoot -15.0919 -10.0715
rtoes -27.0465
lfemur -25.0277 -4.39923 -16.541
ltibia 37.633
lfoot -12.4748 0.666204
ltoes -1.15153
213
root 0.555755 18.0026 -23.8755 -176.927 20.6122 -181.069
lowerback 8.60528 0.0842377 0.400274
upperback -1.3357 0.374688 2.60427
thorax -6.25035 0.245055 2.44799
lowerneck -15.8631 3.88945 3.50078
upperneck 20.7601 6.91042 -7.61248
head 9.58016 2.88629 -2.2788
rclavicle -3.67752e-014 3.18055e-015
rhumerus -42.9378 -14.8259 -65.5881
rradius 59.6426
rwrist -6.28466
rhand -24.866 -8.18155
rfingers 7.12502
rthumb 1.64103 -38.155
lclavicle -3.67752e-014 3.18055e-015
lhumerus -44.0042 9.86937 81.672
lradius 42.148
lwrist -13.1622
lhand -8.38833 -0.10206
lfingers 7.12502
lthumb 17.5352 29.1271
rfemur -11.4713 -2.49052 17.7664
rtibia 29.7274
rfoot -15.1092 -10.2377
rtoes -27.0641
lfemur -25.0953 -4.47177 -16.5041
ltibia 37.6468
lfoot -12.5749 0.608826
ltoes -1.14693
214
root 0.567279 18.0053 -23.9046 -176.776 20.4742 -181.038
lowerback 8.55788 0.0886894 0.366283
upperback -1.35884 0.374765 2.59086
thorax -6.24786 0.245722 2.45309
lowerneck -15.8882 3.84818 3.45666
upperneck 20.8364 6.8582 -7.54908
head 9.60412 2.86443 -2.25642
rclavicle -8.15017e-015 -4.85035e-014
rhumerus -42.6909 -14.5955 -66.0452
rradius 59.4636
rwrist -6.05786
rhand -24.8444 -8.10209
rfingers 7.12502
rthumb 1.66187 -38.0754
lclavicle -8.15017e-015 -4.85035e-014
lhumerus -43.6784 9.68125 81.7478
lradius 42.3956
lwrist -12.955
lhand -8.38138 0.0941915
lfingers 7.12502
lthumb 17.5418 29.3228
rfemur -11.395 -2.46158 17.8144
rtibia 29.5551
rfoot -15.1264 -10.4027
rtoes -27.0888
lfemur -25.1643 -4.54003 -16.4671
ltibia 37.6622
lfoot -12.6781 0.552337
ltoes -1.13692
215
root 0.578519 18.008 -23.9338 -176.628 20.344 -181.017
lowerback 8.51076 0.0973238 0.318331
upperback -1.37719 0.378392 2.57376
thorax -6.24066 0.248426 2.46169
lowerneck -15.9206 3.80706 3.41614
upperneck 20.9051 6.8029 -7.48436
head 9.62672 2.84113 -2.23451
rclavicle -3.85642e-014 4.85035e-014
rhumerus -42.4287 -14.3728 -66.5054
rradius 59.2407
rwrist -5.81884
rhand -24.8031 -8.05209
rfingers 7.12502
rthumb 1.7017 -38.025
lclavicle -3.85642e-014 4.85035e-014
lhumerus -43.3458 9.54773 81.7953
lradius 42.6529
lwrist -12.7088
lhand -8.45475 0.32931
lfingers 7.12502
lthumb 17.4712 29.5642
rfemur -11.3244 -2.43182 17.8504
rtibia 29.3865
rfoot -15.1441 -10.5665
rtoes -27.1178
lfemur -25.2334 -4.60577 -16.4419
ltibia 37.6787
lfoot -12.7839 0.501436
ltoes -1.12136
216
root 0.58944 18.0107 -23.9633 -176.477 20.2234 -180.996
lowerback 8.45767 0.111022 0.269734
upperback -1.39022 0.3885 2.55606
thorax -6.22471 0.254267 2.46905
lowerneck -15.9545 3.76454 3.37611
upperneck 20.9608 6.74287 -7.41868
head 9.64483 2.8156 -2.21296
rclavicle 2.57426e-014 5.56597e-015
rhumerus -42.16 -14.1517 -66.9675
rradius 58.9882
rwrist -5.56866
rhand -24.7442 -8.02496
rfingers 7.12502
rthumb 1.75862 -37.9975
lclavicle 2.57426e-014 5.56597e-015
lhumerus -43.0081 9.45896 81.8219
lradius 42.9201
lwrist -12.4261
lhand -8.60664 0.594553
lfingers 7.12502
lthumb 17.3251 29.8424
rfemur -11.2604 -2.39747 17.8872
rtibia 29.2204
rfoot -15.1609 -10.7323
rtoes -27.1551
lfemur -25.3047 -4.66848 -16.4161
ltibia 37.6978
lfoot -12.8938 0.459149
ltoes -1.09574
217
root 0.600024 18.0133 -23.9927 -176.32 20.1167 -180.969
lowerback 8.40455 0.131633 0.223412
upperback -1.40458 0.408364 2.5399
thorax -6.21056 0.264916 2.47544
lowerneck -15.9754 3.7203 3.33689
upperneck 21.0038 6.68008 -7.35689
head 9.65611 2.78897 -2.19341
rclavicle -3.79679e-014 1.19271e-014
rhumerus -41.8936 -13.9294 -67.4291
rradius 58.7066
rwrist -5.30588
rhand -24.6822 -8.02326
rfingers 7.12502
rthumb 1.8185 -37.9953
lclavicle -3.79679e-014 1.19271e-014
lhumerus -42.6766 9.40235 81.8331
lradius 43.1971
lwrist -12.1087
lhand -8.83141 0.882087
lfingers 7.12502
lthumb 17.1087 30.1488
rfemur -11.2051 -2.34485 17.9306
rtibia 29.056
rfoot -15.172 -10.9092
rtoes -27.1982
lfemur -25.38 -4.72565 -16.3846
ltibia 37.721
lfoot -13.0065 0.427946
ltoes -1.05772
218
root 0.610109 18.0158 -24.0226 -176.159 20.021 -180.939
lowerback 8.34487 0.156037 0.181174
upperback -1.41767 0.433711 2.52387
thorax -6.19157 0.278113 2.4789
lowerneck -15.985 3.67323 3.2908
upperneck 21.0363 6.61251 -7.2892
head 9.66089 2.7606 -2.17144
rclavicle -1.45113e-014 -2.54444e-014
rhumerus -41.6216 -13.7107 -67.8928
rradius 58.3908
rwrist -5.02004
rhand -24.6137 -8.02743
rfingers 7.12502
rthumb 1.88465 -37.9988
lclavicle -1.45113e-014 -2.54444e-014
lhumerus -42.3536 9.37428 81.8311
lradius 43.4874
lwrist -11.7626
lhand -9.11084 1.18926
lfingers 7.12502
lthumb 16.8397 30.4791
rfemur -11.1562 -2.28383 17.9758
rtibia 28.8923
rfoot -15.1804 -11.0905
rtoes -27.2564
lfemur -25.4593 -4.77716 -16.3523
ltibia 37.7505
lfoot -13.1243 0.406086
ltoes -1.00689
219
root 0.619656 18.018 -24.0527 -175.992 19.9356 -180.902
lowerback 8.28524 0.182881 0.145634
upperback -1.43412 0.463541 2.511
thorax -6.17634 0.293461 2.48135
lowerneck -15.9777 3.62868 3.2476
upperneck 21.0581 6.54933 -7.2293
head 9.6595 2.7344 -2.15222
rclavicle -9.83984e-015 3.02153e-014
rhumerus -41.3584 -13.4841 -68.3579
rradius 58.0589
rwrist -4.71113
rhand -24.5545 -8.03604
rfingers 7.12502
rthumb 1.94183 -38.0069
lclavicle -9.83984e-015 3.02153e-014
lhumerus -42.0492 9.36806 81.8204
lradius 43.7921
lwrist -11.3782
lhand -9.44714 1.51026
lfingers 7.12502
lthumb 16.516 30.8273
rfemur -11.113 -2.21032 18.0284
rtibia 28.7285
rfoot -15.1848 -11.2807
rtoes -27.3197
lfemur -25.5446 -4.82342 -16.3138
ltibia 37.7888
lfoot -13.2467 0.393155
ltoes -0.944039
220
root 0.628645 18.02 -24.0832 -175.821 19.8602 -180.861
lowerback 8.22779 0.210417 0.113117
upperback -1.45356 0.494958 2.4997
thorax -6.1656 0.309599 2.48361
lowerneck -15.9634 3.5874 3.20225
upperneck 21.0768 6.49131 -7.16919
head 9.65603 2.71076 -2.13193
rclavicle -1.00386e-014 1.59028e-014
rhumerus -41.1012 -13.2469 -68.8302
rradius 57.7145
rwrist -4.37515
rhand -24.5113 -8.04794
rfingers 7.12502
rthumb 1.98358 -38.0185
lclavicle -1.00386e-014 1.59028e-014
lhumerus -41.7626 9.37767 81.8012
lradius 44.1092
lwrist -10.9638
lhand -9.8165 1.84318
lfingers 7.12502
lthumb 16.1603 31.1895
rfemur -11.0755 -2.12665 18.0829
rtibia 28.5656
rfoot -15.1864 -11.4762
rtoes -27.3905
lfemur -25.6358 -4.86652 -16.2744
ltibia 37.837
lfoot -13.3737 0.391154
ltoes -0.879476
221
root 0.637053 18.0217 -24.1142 -175.643 19.7917 -180.811
lowerback 8.16764 0.239891 0.0957945
upperback -1.47453 0.530984 2.49101
thorax -6.15504 0.327632 2.47945
lowerneck -15.9408 3.54587 3.15333
upperneck 21.0922 6.43461 -7.11109
head 9.64997 2.68763 -2.11162
rclavicle -4.41302e-014 3.10104e-014
rhumerus -40.8566 -13.0025 -69.3053
rradius 57.3651
rwrist -4.02151
rhand -24.4924 -8.03563
rfingers 7.12502
rthumb 2.00177 -38.006
lclavicle -4.41302e-014 3.10104e-014
lhumerus -41.4933 9.39199 81.7804
lradius 44.4377
lwrist -10.5289
lhand -10.1974 2.18614
lfingers 7.12502
lthumb 15.7935 31.5619
rfemur -11.0422 -2.03502 18.1471
rtibia 28.4037
rfoot -15.1867 -11.6767
rtoes -27.4678
lfemur -25.7342 -4.9076 -16.2257
ltibia 37.8965
lfoot -13.5051 0.39719
ltoes -0.805393
222
root 0.644883 18.0231 -24.1454 -175.463 19.7257 -180.757
lowerback 8.11653 0.26768 0.083072
upperback -1.49954 0.565677 2.48362
thorax -6.15383 0.344992 2.47433
lowerneck -15.9151 3.50814 3.10708
upperneck 21.1077 6.3841 -7.0577
head 9.64405 2.66728 -2.09257
rclavicle 5.02925e-014 4.37326e-014
rhumerus -40.6243 -12.7513 -69.7834
rradius 57.0136
rwrist -3.62786
rhand -24.4812 -8.01234
rfingers 7.12502
rthumb 2.01259 -37.9826
lclavicle 5.02925e-014 4.37326e-014
lhumerus -41.2494 9.41407 81.7549
lradius 44.7806
lwrist -10.0801
lhand -10.5816 2.53765
lfingers 7.12502
lthumb 15.4235 31.9422
rfemur -11.011 -1.93511 18.2132
rtibia 28.2438
rfoot -15.1875 -11.8849
rtoes -27.5435
lfemur -25.8396 -4.95161 -16.1756
ltibia 37.9674
lfoot -13.6388 0.410264
ltoes -0.721097
